# xmcd
#
# Track frame offsets:
#	150
#	12567
#	28134
#	40538
#	57559
#	74876
#	91612
#	103428
#	123063
#	139782
#
# Disc length: 2045 seconds
#
# Revision: 1
# Processed by: cddbd v1.5.2PL0 Copyright (c) Steve Scherf et al.
# Submitted via: audiograbber 1.83.01
#
DISCID=8d07fb0a
DTITLE=Lance Allen - Right About Now
DYEAR=2000
DGENRE=
TTITLE0=Right About Now
TTITLE1=John Deere Letter
TTITLE2=She´s Over Me
TTITLE3=All Time Now
TTITLE4=Where Love Started Out
TTITLE5=I Always Wish For You
TTITLE6=Are You With Me On Twist
TTITLE7=Hello Cruel World
TTITLE8=There´s No More You And Me
TTITLE9=Nobody Wins
EXTD=
EXTT0=
EXTT1=
EXTT2=
EXTT3=
EXTT4=
EXTT5=
EXTT6=
EXTT7=
EXTT8=
EXTT9=
PLAYORDER=
